<svg xmlns="http://www.w3.org/2000/svg" width="14" height="14" viewBox="0 0 14 14"><g><g><path d="M13.376 4.593c.047.064.083.14.103.221.021.082.027.168.017.252l-.93 7.18a1.25 1.25 0 0 1-.341.723.913.913 0 0 1-.66.28h-9.13a.912.912 0 0 1-.658-.28 1.25 1.25 0 0 1-.341-.724l-.94-7.18a.695.695 0 0 1 .014-.253.63.63 0 0 1 .103-.223.516.516 0 0 1 .172-.15.435.435 0 0 1 .21-.053h3V2.023c0-.47.159-.921.44-1.254.281-.332.663-.519 1.06-.519h3c.398 0 .78.187 1.061.52.282.332.44.783.44 1.253v2.363h3c.072 0 .143.019.209.055a.519.519 0 0 1 .17.152zm-8.38-.207h4V2.023a.65.65 0 0 0-.147-.418.465.465 0 0 0-.353-.173h-3a.465.465 0 0 0-.354.173.65.65 0 0 0-.146.418zm7.415 1.182H1.58l.845 6.5h9.14z"/></g></g></svg>