<svg width="10" height="11" viewBox="0 0 10 11" fill="none" xmlns="http://www.w3.org/2000/svg">
<path d="M9.78534 4.12801C9.75013 4.07756 9.70643 4.03706 9.65723 4.00929C9.60803 3.98153 9.55451 3.96715 9.50034 3.96715H7.25034V2.12878C7.25034 1.7631 7.13181 1.41241 6.92084 1.15384C6.70986 0.895264 6.42371 0.75 6.12534 0.75H3.87534C3.57697 0.75 3.29082 0.895264 3.07984 1.15384C2.86887 1.41241 2.75034 1.7631 2.75034 2.12878V3.96715H0.50034C0.445982 3.9664 0.392141 3.98014 0.342545 4.00742C0.29295 4.0347 0.248787 4.07487 0.213117 4.12514C0.177446 4.17542 0.15112 4.2346 0.135964 4.29858C0.120807 4.36256 0.117183 4.42982 0.12534 4.49568L0.83034 10.0797C0.857461 10.2989 0.948303 10.4987 1.08613 10.6423C1.22395 10.7859 1.39947 10.8636 1.58034 10.8611H8.42784C8.60871 10.8636 8.78423 10.7859 8.92205 10.6423C9.05988 10.4987 9.15072 10.2989 9.17784 10.0797L9.87534 4.49568C9.88285 4.43007 9.8787 4.36324 9.86316 4.29978C9.84763 4.23632 9.82108 4.17772 9.78534 4.12801V4.12801ZM3.50034 2.12878C3.50034 2.00689 3.53985 1.88999 3.61018 1.8038C3.6805 1.71761 3.77588 1.66919 3.87534 1.66919H6.12534C6.2248 1.66919 6.32018 1.71761 6.39051 1.8038C6.46083 1.88999 6.50034 2.00689 6.50034 2.12878V3.96715H3.50034V2.12878ZM8.42784 9.94187H1.57284L0.93909 4.88634H9.06159L8.42784 9.94187Z" fill="black"/>
</svg>
