<svg width="11" height="11" viewBox="0 0 11 11" fill="none" xmlns="http://www.w3.org/2000/svg">
<path fill-rule="evenodd" clip-rule="evenodd" d="M7.31293 6.59962L10.0028 9.28957C10.0973 9.38418 10.1504 9.51248 10.1504 9.64623C10.1503 9.77999 10.0972 9.90825 10.0026 10.0028C9.90794 10.0973 9.77965 10.1504 9.64589 10.1504C9.51214 10.1503 9.38388 10.0972 9.28934 10.0025L6.59946 7.31261C5.79536 7.93543 4.78419 8.22853 3.77166 8.13227C2.75913 8.036 1.8213 7.55762 1.14896 6.79443C0.476614 6.03123 0.120259 5.04056 0.152389 4.02395C0.184518 3.00734 0.602717 2.04115 1.32191 1.32194C2.0411 0.602728 3.00727 0.184519 4.02386 0.152389C5.04044 0.120259 6.03109 0.476622 6.79426 1.14898C7.55743 1.82134 8.03581 2.75919 8.13207 3.77175C8.22833 4.7843 7.93524 5.7955 7.31243 6.59962H7.31293ZM4.15058 7.15011C4.94619 7.15011 5.70921 6.83405 6.2718 6.27145C6.83438 5.70885 7.15044 4.94581 7.15044 4.15018C7.15044 3.35454 6.83438 2.5915 6.2718 2.0289C5.70921 1.46631 4.94619 1.15024 4.15058 1.15024C3.35496 1.15024 2.59194 1.46631 2.02936 2.0289C1.46677 2.5915 1.15072 3.35454 1.15072 4.15018C1.15072 4.94581 1.46677 5.70885 2.02936 6.27145C2.59194 6.83405 3.35496 7.15011 4.15058 7.15011Z" fill="black"/>
</svg>
