<svg width="10" height="13" viewBox="0 0 10 13" fill="none" xmlns="http://www.w3.org/2000/svg">
<path d="M8.875 5.71591C8.875 8.89773 4.875 11.625 4.875 11.625C4.875 11.625 0.875 8.89773 0.875 5.71591C0.875 4.63093 1.29643 3.59039 2.04657 2.8232C2.79672 2.05601 3.81413 1.625 4.875 1.625C5.93587 1.625 6.95328 2.05601 7.70343 2.8232C8.45357 3.59039 8.875 4.63093 8.875 5.71591Z" stroke="white" stroke-width="1.33333" stroke-linecap="round" stroke-linejoin="round"/>
<path d="M4.87533 7.07981C5.61171 7.07981 6.20866 6.46929 6.20866 5.71617C6.20866 4.96306 5.61171 4.35254 4.87533 4.35254C4.13895 4.35254 3.54199 4.96306 3.54199 5.71617C3.54199 6.46929 4.13895 7.07981 4.87533 7.07981Z" stroke="white" stroke-width="1.33333" stroke-linecap="round" stroke-linejoin="round"/>
</svg>
